<?xml version="1.0" encoding="UTF-8"?>
<svg id="checkbox-svg" data-name="Слой 1" xmlns="http://www.w3.org/2000/svg" viewBox="0 0 97 97">
  <defs>
    <style>
      .cls-1 {
        fill: #3586ff;
        stroke-width: 0px;
      }
    </style>
  </defs>
  <path class="circuit" d="m75.84,97H21.16c-11.67,0-21.16-9.49-21.16-21.16V21.16C0,9.49,9.49,0,21.16,0h54.68c11.67,0,21.16,9.49,21.16,21.16v54.68c0,11.67-9.49,21.16-21.16,21.16ZM21.16,6c-8.36,0-15.16,6.8-15.16,15.16v54.68c0,8.36,6.8,15.16,15.16,15.16h54.68c8.36,0,15.16-6.8,15.16-15.16V21.16c0-8.36-6.8-15.16-15.16-15.16H21.16Z"/>
  <polygon class="check" points="78 31.13 68.01 22.68 43.08 52.15 29.47 40.64 21.02 50.63 44.63 70.6 53.07 60.61 53.06 60.6 78 31.13"/>
</svg>