<?xml version="1.0" encoding="UTF-8"?>
<svg id="_Слой_1" data-name="Слой 1" xmlns="http://www.w3.org/2000/svg" viewBox="0 0 91 91">
  <defs>
    <style>
      .cls-1 {
        fill: #3586ff;
        stroke-width: 0px;
      }
    </style>
  </defs>
  <path class="cls-1" d="m45.5,0c-.75,0-1.51.02-2.27.06C19.7,1.2.71,20.58.02,44.14c-.16,5.44.64,10.66,2.23,15.53.41,1.25,1.55,2.01,2.75,2.01.48,0,.96-.12,1.42-.38h.02c1.32-.77,1.9-2.34,1.43-3.79-1.52-4.75-2.17-9.9-1.74-15.25C7.72,22.58,23.98,6.91,43.71,6.04c.6-.03,1.2-.04,1.79-.04,22.52,0,40.64,18.84,39.44,41.63-1.04,19.77-16.92,35.93-36.67,37.28-.93.06-1.85.09-2.77.09-12.08,0-22.89-5.42-30.13-13.96-.62-.73-1.5-1.12-2.4-1.12-.53,0-1.06.13-1.54.41l-.03.02c-1.53.89-1.94,2.95-.8,4.31,8.34,9.98,20.88,16.34,34.91,16.34.94,0,1.89-.03,2.84-.09,22.27-1.35,40.5-19.03,42.48-41.25C93.21,22.66,72,0,45.5,0h0Z"/>
  <circle class="cls-1" cx="46" cy="46" r="27"/>
</svg>